<svg xmlns="http://www.w3.org/2000/svg" viewBox="0 0 144 252.6"><defs><style>.cls-1{fill:#414042;}.cls-2{fill:#fbb040;}</style></defs><g id="Layer_2" data-name="Layer 2"><g id="Layer_1-2" data-name="Layer 1"><path class="cls-1" d="M59,148.77h.74q-1.63,3-3.26,6Z"/><path class="cls-1" d="M94.64,0,67.4,66.38l19.75-4.76v7.49L48,76.26,40.17,97.7Q37.62,87.83,35.06,78L0,80.34Q11.91,118,23.83,155.57L38.47,159q-8.17,23.31-16.34,46.64l19.06-1-9.53,48q14-33.89,27.91-67.75L39.49,191q1.36-4.93,2.72-9.87L113,176q4.77-15.5,9.53-31L112,135.49l9.87-2.38L144,105.87l-55.49-5.78q8.51-28.26,17-56.52l-19.4,3.75Q90.38,23.67,94.64,0Z"/><path class="cls-2" d="M74,104.17l58.89,4.43-13.62,17.7-24.85,1,22.13,21.11L109,170.21,47.4,175q5.18-12.19,10.33-24.38l23.72-1.15-16-17Q69.69,118.3,74,104.17Z"/><path class="cls-2" d="M8.43,86.81l20.42-2q4.77,16,9.53,32L51,81.36l27.91-5.1q-14.64,40-29.27,80l-22.13-4.09Q18,119.49,8.43,86.81Z"/></g></g></svg>